<svg t="1588942796092" class="icon" viewBox="0 0 1024 1024" version="1.1" xmlns="http://www.w3.org/2000/svg" p-id="4018" width="200" height="200"><path d="M386.474099 732.207307c-0.069585 0-0.13917-0.001023-0.209778-0.001023-4.997827-0.056282-9.767458-2.101871-13.253862-5.683443L193.226816 541.800723c-7.236821-7.435343-7.075139-19.329231 0.360204-26.566052 7.435343-7.236821 19.329231-7.076162 26.566052 0.360204l166.617785 171.195034 361.634364-355.342054c7.40055-7.271614 19.294438-7.16826 26.568099 0.233314 7.271614 7.40055 7.167237 19.295462-0.234337 26.568099L399.640979 726.821647C396.125923 730.275305 391.396201 732.207307 386.474099 732.207307z" p-id="4019" fill="#019889"></path><path d="M508.08483 973.240943c-62.755276 0-123.643018-12.295024-180.972724-36.543288-55.363935-23.417339-105.08229-56.93778-147.773601-99.628068s-76.210729-92.409666-99.628068-147.772578C55.462173 631.966279 43.167149 571.07956 43.167149 508.324284s12.295024-123.643018 36.543288-180.972724c23.417339-55.364959 56.936757-105.08229 99.628068-147.773601s92.409666-76.210729 147.773601-99.628068C384.441812 55.701626 445.329555 43.406602 508.08483 43.406602c62.755276 0 123.643018 12.295024 180.972724 36.543288 55.364959 23.417339 105.08229 56.936757 147.773601 99.628068s76.211752 92.409666 99.628068 147.773601c24.248264 57.328683 36.543288 118.217449 36.543288 180.972724s-12.295024 123.643018-36.543288 180.972724c-23.417339 55.363935-56.93778 105.081267-99.628068 147.772578s-92.409666 76.211752-147.773601 99.628068C631.727849 960.946942 570.840106 973.240943 508.08483 973.240943zM508.08483 80.980359c-57.69912 0-113.661689 11.296277-166.334329 33.5757-50.885947 21.522176-96.589872 52.338019-135.841851 91.591021-39.253002 39.251979-70.068845 84.955904-91.591021 135.841851-22.279423 52.67264-33.5757 108.636233-33.5757 166.335353 0 57.69912 11.296277 113.662713 33.5757 166.335353 21.522176 50.884924 52.338019 96.588849 91.591021 135.840828 39.251979 39.251979 84.955904 70.068845 135.841851 91.591021 52.67264 22.278399 108.636233 33.5757 166.334329 33.5757s113.662713-11.296277 166.335353-33.5757c50.885947-21.522176 96.589872-52.338019 135.841851-91.591021s70.068845-84.955904 91.591021-135.840828c22.278399-52.673663 33.5757-108.636233 33.5757-166.335353 0-57.69912-11.296277-113.662713-33.5757-166.335353-21.522176-50.885947-52.338019-96.589872-91.591021-135.841851-39.251979-39.253002-84.955904-70.068845-135.841851-91.591021C621.747543 92.276636 565.782927 80.980359 508.08483 80.980359z" p-id="4020" fill="#019889"></path></svg>