<svg t="1589018317574" class="icon" viewBox="0 0 1024 1024" version="1.1" xmlns="http://www.w3.org/2000/svg" p-id="5712" width="200" height="200"><path d="M483.5 759.01h76c15.74 0 28.5 12.76 28.5 28.5s-12.76 28.5-28.5 28.5h-76c-15.74 0-28.5-12.76-28.5-28.5s12.76-28.5 28.5-28.5z" p-id="5713" fill="#e6e6e6"></path><path d="M759.01 711.51H264.99c-15.74 0-28.5-12.76-28.5-28.5s12.76-28.5 28.5-28.5h494.02c15.74 0 28.5 12.76 28.5 28.5s-12.75 28.5-28.5 28.5z" p-id="5714" fill="#e6e6e6"></path><path d="M740.01 920.52H283.99c-36.67 0-66.5-29.84-66.5-66.5V169.98c0-36.67 29.84-66.5 66.5-66.5h456.02c36.67 0 66.5 29.84 66.5 66.5v684.03c0 36.67-29.83 66.51-66.5 66.51zM283.99 160.48c-5.24 0-9.5 4.26-9.5 9.5v684.03c0 5.24 4.26 9.5 9.5 9.5h456.02c5.24 0 9.5-4.26 9.5-9.5V169.98c0-5.24-4.26-9.5-9.5-9.5H283.99z" p-id="5715" fill="#e6e6e6"></path></svg>