<svg t="1589020222718" class="icon" viewBox="0 0 1024 1024" version="1.1" xmlns="http://www.w3.org/2000/svg" p-id="9195" width="200" height="200"><path d="M510.955 831.739c-23.51 0-45.453-9.927-61.649-27.168L138.971 468.114c-28.734-31.347-29.78-79.412-1.567-111.804l117.551-135.314c15.674-18.286 38.661-28.735 63.216-28.735h387.135c24.033 0 47.02 10.45 62.694 28.735L886.073 356.31c28.213 32.392 27.69 80.457-1.567 111.804L572.082 804.571c-15.674 17.241-38.14 27.168-61.127 27.168z m-30.824-55.38c7.836 8.882 18.808 13.584 30.824 13.584 11.494 0 22.465-4.702 30.825-13.584l312.947-336.457c14.628-15.673 15.15-39.706 1.044-55.902L736.653 248.686c-7.837-8.882-19.33-14.106-31.347-14.106H317.65c-12.016 0-23.51 5.224-31.347 14.106L168.751 384c-14.106 16.196-13.584 40.229 1.045 55.902L480.13 776.359z" p-id="9196" fill="#019889"></path><path d="M506.776 642.612c-5.225 0-10.972-2.09-15.152-6.27L287.87 427.364c-7.836-8.359-7.836-21.42 0.523-29.78 8.359-7.836 21.42-7.836 29.78 0.523l189.126 193.829 199.053-194.351c8.36-7.837 21.42-7.837 29.78 0.522 7.836 8.36 7.836 21.42-0.523 29.78l-214.204 208.98c-4.18 3.656-9.404 5.746-14.628 5.746z" p-id="9197" fill="#019889"></path></svg>